<svg width="68" height="9" viewBox="0 0 68 9" fill="none" xmlns="http://www.w3.org/2000/svg">
<g id="Search book">
<path d="M3.68056 8.6683C2.09433 8.6683 0.644408 8.09824 0 6.69789L0.991398 5.6941C1.43753 6.90857 2.68917 7.37948 3.70535 7.37948C4.53564 7.37948 5.20484 7.08206 5.20484 6.32612C5.20484 5.52061 4.53564 5.29754 3.4575 5.06209L2.67677 4.88859C1.49949 4.64074 0.247849 4.10787 0.247849 2.53402C0.247849 0.972571 1.59863 0.129883 3.16008 0.129883C4.68435 0.129883 5.89882 0.761899 6.49365 1.90201L5.44029 2.9058C4.98177 1.87722 4.08952 1.43109 3.07333 1.43109C2.28021 1.43109 1.71016 1.80287 1.71016 2.43488C1.71016 3.16604 2.28021 3.42628 3.18486 3.64935L4.1143 3.87241C5.44029 4.19461 6.62997 4.7151 6.62997 6.30133C6.62997 7.80082 5.36594 8.6683 3.68056 8.6683Z" fill="white"/>
<path d="M10.5472 8.6683C8.75025 8.6683 7.57296 7.41666 7.57296 5.533C7.57296 3.63695 8.75025 2.38531 10.448 2.38531C12.2573 2.38531 13.2611 3.58738 13.2611 5.26037C13.2611 5.48343 13.2363 5.74367 13.2115 5.8676H8.89896C8.97331 6.94574 9.60533 7.52819 10.5595 7.52819C11.6129 7.52819 12.0838 6.98292 12.3069 6.47483L13.162 7.36709C12.7034 8.06107 11.8855 8.6683 10.5472 8.6683ZM10.448 3.50064C9.59293 3.50064 9.02288 3.99633 8.91135 4.97534H12.0095C11.9103 4.02112 11.3651 3.50064 10.448 3.50064Z" fill="white"/>
<path d="M15.7539 8.6683C14.7625 8.6683 14.1677 8.11064 14.1677 7.24316C14.1677 6.38808 14.7625 5.8676 15.7415 5.48343L17.7615 4.62835C17.7119 4.02112 17.4393 3.61217 16.609 3.61217C15.8035 3.61217 15.1715 4.08308 14.8245 4.7151L13.9942 3.7237C14.4651 3.07929 15.4069 2.38531 16.7453 2.38531C18.2448 2.38531 19.0875 3.24039 19.0875 4.72749V6.99531C19.0875 7.26795 19.1866 7.35469 19.4097 7.35469H19.7939V8.54437H18.9388C18.2944 8.54437 17.7863 8.24695 17.7863 7.37948V6.93335C17.6004 7.72647 17.018 8.6683 15.7539 8.6683ZM15.5061 7.03249C15.5061 7.37948 15.7415 7.59015 16.2496 7.59015C17.1667 7.59015 17.7863 7.04488 17.7863 6.22698V5.58257L16.2372 6.27655C15.7167 6.51201 15.5061 6.72268 15.5061 7.03249Z" fill="white"/>
<path d="M22.2184 8.54437H20.8305V2.50924H22.2184V4.2194C22.4415 3.25279 23.0487 2.38531 24.1269 2.38531C24.8828 2.38531 25.4405 2.88101 25.4405 3.77327C25.4405 4.35572 25.2794 4.78945 25.1678 4.97534H23.7427C23.941 4.77706 24.1269 4.3805 24.1269 4.03351C24.1269 3.69891 23.9658 3.42628 23.5568 3.42628C22.8628 3.42628 22.2184 4.2194 22.2184 5.22319V8.54437Z" fill="white"/>
<path d="M28.8059 8.6683C27.009 8.6683 25.8813 7.40426 25.8813 5.533C25.8813 3.64935 27.009 2.38531 28.8059 2.38531C30.3178 2.38531 31.272 3.24039 31.5942 4.3805L30.3426 5.00012C30.2063 4.13265 29.7601 3.5502 28.8307 3.5502C27.8765 3.5502 27.294 4.25658 27.294 5.533C27.294 6.79703 27.8765 7.5034 28.8307 7.5034C29.7725 7.5034 30.2063 6.92096 30.3426 6.05348L31.5942 6.67311C31.272 7.81322 30.3178 8.6683 28.8059 8.6683Z" fill="white"/>
<path d="M34.0289 8.54437H32.6409V0.241415H34.0289V4.15744C34.2519 3.20322 34.8715 2.38531 36.0736 2.38531C37.2509 2.38531 37.9697 3.09168 37.9697 4.34332V8.54437H36.5693V4.76467C36.5693 4.02112 36.3215 3.51303 35.392 3.51303C34.3758 3.51303 34.0289 4.16983 34.0289 5.16123V8.54437Z" fill="white"/>
<path d="M43.3099 8.54437H41.922V0.241415H43.3099V4.13265C43.5082 3.19082 44.0411 2.38531 45.2432 2.38531C46.7179 2.38531 47.6597 3.58738 47.6597 5.533C47.6597 7.47862 46.7179 8.68069 45.2184 8.68069C44.0163 8.68069 43.5082 7.87518 43.3099 6.94574V8.54437ZM43.3099 5.91717C43.3099 6.90857 43.7189 7.55297 44.6979 7.55297C45.5778 7.55297 46.2346 6.89617 46.2346 5.533C46.2346 4.18222 45.5778 3.51303 44.6979 3.51303C43.7189 3.51303 43.3099 4.16983 43.3099 5.16123V5.91717Z" fill="white"/>
<path d="M51.4084 8.6683C49.6735 8.6683 48.4838 7.40426 48.4838 5.533C48.4838 3.64935 49.6735 2.38531 51.4084 2.38531C53.1681 2.38531 54.3578 3.64935 54.3578 5.533C54.3578 7.40426 53.1681 8.6683 51.4084 8.6683ZM51.4208 7.5158C52.3255 7.5158 52.9451 6.92096 52.9451 5.533C52.9451 4.13265 52.3255 3.53781 51.4208 3.53781C50.5286 3.53781 49.9089 4.13265 49.9089 5.533C49.9089 6.92096 50.5286 7.5158 51.4208 7.5158Z" fill="white"/>
<path d="M58.185 8.6683C56.45 8.6683 55.2603 7.40426 55.2603 5.533C55.2603 3.64935 56.45 2.38531 58.185 2.38531C59.9447 2.38531 61.1344 3.64935 61.1344 5.533C61.1344 7.40426 59.9447 8.6683 58.185 8.6683ZM58.1974 7.5158C59.102 7.5158 59.7216 6.92096 59.7216 5.533C59.7216 4.13265 59.102 3.53781 58.1974 3.53781C57.3051 3.53781 56.6855 4.13265 56.6855 5.533C56.6855 6.92096 57.3051 7.5158 58.1974 7.5158Z" fill="white"/>
<path d="M63.7122 8.54437H62.3242V0.241415H63.7122V4.0459L63.6626 5.2108L64.654 4.12026L66.3022 2.50924H68L65.5587 4.88859L68 8.54437H66.3766L64.6169 5.71889L63.7122 6.61115V8.54437Z" fill="white"/>
</g>
</svg>
